<svg width="375" height="812" viewBox="0 0 375 812" fill="none" xmlns="http://www.w3.org/2000/svg">
<rect width="375" height="812" fill="#E5E5E5"/>
<g clip-path="url(#clip0)">
<rect width="375" height="812" fill="url(#paint0_linear)"/>
<circle cx="327.353" cy="373.353" r="27.8227" transform="rotate(-15.8189 327.353 373.353)" fill="url(#paint1_linear)"/>
<circle cx="188" cy="-107" r="170" fill="url(#paint2_linear)"/>
<circle cx="188" cy="852" r="74" fill="url(#paint3_linear)"/>
<circle cx="92.5" cy="10.5" r="149.5" fill="url(#paint4_linear)" fill-opacity="0.61"/>
<circle cx="92.5" cy="10.5" r="149.5" fill="url(#paint5_linear)" fill-opacity="0.61"/>
<g style="mix-blend-mode:overlay">
<path d="M164.826 136.565H158.565C157.701 136.565 157 135.866 157 135C157 134.134 157.701 133.435 158.565 133.435H164.826C165.69 133.435 166.391 134.134 166.391 135C166.391 135.866 165.69 136.565 164.826 136.565Z" fill="white"/>
<path d="M173.078 116.643C172.677 116.643 172.277 116.49 171.971 116.185L167.545 111.757C166.933 111.145 166.933 110.155 167.545 109.543C168.157 108.931 169.146 108.931 169.758 109.543L174.185 113.971C174.797 114.583 174.797 115.573 174.185 116.185C173.879 116.491 173.479 116.643 173.078 116.643Z" fill="white"/>
<path d="M193 108.391C192.136 108.391 191.435 107.692 191.435 106.826V100.565C191.435 99.6997 192.136 99 193 99C193.864 99 194.565 99.6997 194.565 100.565V106.826C194.565 107.692 193.864 108.391 193 108.391Z" fill="white"/>
<path d="M212.922 116.643C212.521 116.643 212.121 116.49 211.816 116.185C211.204 115.573 211.204 114.583 211.816 113.971L216.242 109.543C216.852 108.931 217.843 108.931 218.455 109.543C219.067 110.155 219.067 111.145 218.455 111.757L214.029 116.185C213.724 116.491 213.323 116.643 212.922 116.643Z" fill="white"/>
<path d="M227.435 136.565H221.174C220.31 136.565 219.609 135.866 219.609 135C219.609 134.134 220.31 133.435 221.174 133.435H227.435C228.299 133.435 229 134.134 229 135C229 135.866 228.299 136.565 227.435 136.565Z" fill="white"/>
<path d="M193 114.652C181.781 114.652 172.652 123.781 172.652 135C172.652 143.217 177.641 150.621 185.174 153.764V163.174H200.826V153.764C208.359 150.621 213.348 143.217 213.348 135C213.348 123.781 204.219 114.652 193 114.652Z" fill="white"/>
<path d="M189.87 171H196.13C198.724 171 200.826 168.898 200.826 166.304H185.174C185.174 168.898 187.276 171 189.87 171Z" fill="white"/>
</g>
</g>
<defs>
<linearGradient id="paint0_linear" x1="560.5" y1="1285.5" x2="-82.0001" y2="-221.5" gradientUnits="userSpaceOnUse">
<stop stop-color="#F0F4FD"/>
<stop offset="1" stop-color="white"/>
</linearGradient>
<linearGradient id="paint1_linear" x1="375.843" y1="328.1" x2="280.424" y2="411.757" gradientUnits="userSpaceOnUse">
<stop stop-color="#2DEEF9"/>
<stop offset="1" stop-color="#E084F1"/>
</linearGradient>
<linearGradient id="paint2_linear" x1="125" y1="-95" x2="397" y2="142" gradientUnits="userSpaceOnUse">
<stop stop-color="#FE84F0"/>
<stop offset="1" stop-color="#D783EB"/>
</linearGradient>
<linearGradient id="paint3_linear" x1="122.053" y1="762.112" x2="278.976" y2="960.388" gradientUnits="userSpaceOnUse">
<stop stop-color="#FFF17C"/>
<stop offset="1" stop-color="#FF8B8E"/>
</linearGradient>
<linearGradient id="paint4_linear" x1="242" y1="143" x2="-191.5" y2="-290.5" gradientUnits="userSpaceOnUse">
<stop offset="0.00452904" stop-color="white"/>
<stop offset="0.626054" stop-color="#79ABFC"/>
<stop offset="1" stop-color="#606CFF"/>
</linearGradient>
<linearGradient id="paint5_linear" x1="242" y1="143" x2="-191.5" y2="-290.5" gradientUnits="userSpaceOnUse">
<stop offset="0.00452904" stop-color="white"/>
<stop offset="0.626054" stop-color="#79ABFC"/>
<stop offset="1" stop-color="#606CFF"/>
</linearGradient>
<clipPath id="clip0">
<rect width="375" height="812" fill="white"/>
</clipPath>
</defs>
</svg>
