<svg width="136" height="136" viewBox="0 0 136 136" fill="none" xmlns="http://www.w3.org/2000/svg">
<rect width="136" height="136" fill="#E5E5E5"/>
<circle cx="68" cy="68" r="68" fill="url(#paint0_linear)"/>
<g style="mix-blend-mode:overlay">
<path d="M39.8261 69.5652H33.5652C32.7012 69.5652 32 68.8656 32 68C32 67.1345 32.7012 66.4348 33.5652 66.4348H39.8261C40.6901 66.4348 41.3913 67.1345 41.3913 68C41.3913 68.8656 40.6901 69.5652 39.8261 69.5652Z" fill="white"/>
<path d="M48.0781 49.6431C47.6774 49.6431 47.2767 49.4897 46.9715 49.1845L42.545 44.7565C41.933 44.1445 41.933 43.1553 42.545 42.5433C43.157 41.9313 44.1462 41.9313 44.7582 42.5433L49.1847 46.9713C49.7967 47.5833 49.7967 48.5725 49.1847 49.1845C48.8795 49.4913 48.4788 49.6431 48.0781 49.6431Z" fill="white"/>
<path d="M68 41.3913C67.136 41.3913 66.4348 40.6917 66.4348 39.8261V33.5652C66.4348 32.6997 67.136 32 68 32C68.864 32 69.5652 32.6997 69.5652 33.5652V39.8261C69.5652 40.6917 68.864 41.3913 68 41.3913Z" fill="white"/>
<path d="M87.9221 49.6431C87.5214 49.6431 87.1207 49.4897 86.8155 49.1845C86.2035 48.5725 86.2035 47.5833 86.8155 46.9713L91.2419 42.5433C91.8524 41.9313 92.8432 41.9313 93.4552 42.5433C94.0672 43.1553 94.0672 44.1445 93.4552 44.7565L89.0287 49.1845C88.7235 49.4913 88.3228 49.6431 87.9221 49.6431Z" fill="white"/>
<path d="M102.435 69.5652H96.1739C95.3099 69.5652 94.6087 68.8656 94.6087 68C94.6087 67.1345 95.3099 66.4348 96.1739 66.4348H102.435C103.299 66.4348 104 67.1345 104 68C104 68.8656 103.299 69.5652 102.435 69.5652Z" fill="white"/>
<path d="M68 47.6522C56.7805 47.6522 47.6522 56.7805 47.6522 68C47.6522 76.2174 52.6405 83.6209 60.1739 86.7638V96.1739H75.8261V86.7638C83.3595 83.6209 88.3478 76.2174 88.3478 68C88.3478 56.7805 79.2195 47.6522 68 47.6522Z" fill="white"/>
<path d="M64.8696 104H71.1304C73.724 104 75.8261 101.898 75.8261 99.3043H60.1739C60.1739 101.898 62.276 104 64.8696 104Z" fill="white"/>
</g>
<defs>
<linearGradient id="paint0_linear" x1="56.5" y1="18.5" x2="151.6" y2="167.6" gradientUnits="userSpaceOnUse">
<stop stop-color="#FEB665"/>
<stop offset="1" stop-color="#F66EB4"/>
</linearGradient>
</defs>
</svg>
