<svg width="375" height="812" viewBox="0 0 375 812" fill="none" xmlns="http://www.w3.org/2000/svg">
<rect width="375" height="812" fill="#E5E5E5"/>
<g clip-path="url(#clip0)">
<rect width="375" height="812" fill="url(#paint0_linear)"/>
<path d="M328.176 83.52L326.688 83.976C326.632 83.672 326.48 83.396 326.232 83.148C325.984 82.9 325.62 82.776 325.14 82.776C324.748 82.776 324.428 82.884 324.18 83.1C323.932 83.308 323.808 83.56 323.808 83.856C323.808 84.376 324.116 84.696 324.732 84.816L325.92 85.044C326.672 85.188 327.256 85.488 327.672 85.944C328.088 86.4 328.296 86.936 328.296 87.552C328.296 88.256 328.016 88.872 327.456 89.4C326.904 89.92 326.16 90.18 325.224 90.18C324.688 90.18 324.204 90.1 323.772 89.94C323.34 89.78 322.992 89.568 322.728 89.304C322.464 89.032 322.256 88.748 322.104 88.452C321.96 88.148 321.872 87.836 321.84 87.516L323.376 87.108C323.416 87.564 323.592 87.944 323.904 88.248C324.224 88.552 324.668 88.704 325.236 88.704C325.668 88.704 326.004 88.608 326.244 88.416C326.492 88.224 326.616 87.972 326.616 87.66C326.616 87.412 326.524 87.2 326.34 87.024C326.164 86.84 325.912 86.716 325.584 86.652L324.396 86.412C323.708 86.268 323.164 85.984 322.764 85.56C322.364 85.136 322.164 84.608 322.164 83.976C322.164 83.224 322.452 82.592 323.028 82.08C323.612 81.568 324.312 81.312 325.128 81.312C325.616 81.312 326.052 81.38 326.436 81.516C326.82 81.652 327.128 81.836 327.36 82.068C327.592 82.292 327.772 82.524 327.9 82.764C328.028 83.004 328.12 83.256 328.176 83.52ZM335.879 90L333.407 86.472L332.351 87.636V90H330.695V81.492H332.351V85.344L335.759 81.492H337.931L334.559 85.2L337.955 90H335.879ZM341.754 90H340.074V81.492H341.754V90ZM346.363 85.368H347.671C348.079 85.368 348.403 85.26 348.643 85.044C348.883 84.82 349.003 84.524 349.003 84.156C349.003 83.78 348.883 83.484 348.643 83.268C348.411 83.044 348.087 82.932 347.671 82.932H346.363V85.368ZM347.875 86.796H346.351V90H344.695V81.492H347.875C348.707 81.492 349.379 81.74 349.891 82.236C350.411 82.732 350.671 83.368 350.671 84.144C350.671 84.92 350.411 85.556 349.891 86.052C349.379 86.548 348.707 86.796 347.875 86.796Z" fill="white"/>
<path d="M199 292L188 260.408L177 292H144L170.895 313.054L160.324 345.592L188 325.484L215.676 345.592L205.105 313.054L232 292H199Z" fill="white"/>
<circle cx="56" cy="116" r="19" fill="url(#paint1_linear)"/>
<circle cx="84.201" cy="834.9" r="135.533" transform="rotate(-15.8189 84.201 834.9)" fill="url(#paint2_linear)" fill-opacity="0.15"/>
<circle cx="286.67" cy="-3.33164" r="66.1429" transform="rotate(-15.8189 286.67 -3.33164)" fill="url(#paint3_linear)"/>
</g>
<defs>
<linearGradient id="paint0_linear" x1="560.5" y1="1285.5" x2="-82.0001" y2="-221.5" gradientUnits="userSpaceOnUse">
<stop stop-color="#F0F4FD"/>
<stop offset="1" stop-color="white"/>
</linearGradient>
<linearGradient id="paint1_linear" x1="52.7868" y1="102.169" x2="79.3588" y2="143.829" gradientUnits="userSpaceOnUse">
<stop stop-color="#FEB665"/>
<stop offset="1" stop-color="#F66EB4"/>
</linearGradient>
<linearGradient id="paint2_linear" x1="320.408" y1="614.456" x2="-144.406" y2="1021.98" gradientUnits="userSpaceOnUse">
<stop stop-color="#2DEEF9"/>
<stop offset="1" stop-color="#E084F1"/>
</linearGradient>
<linearGradient id="paint3_linear" x1="401.943" y1="-110.912" x2="175.105" y2="87.9662" gradientUnits="userSpaceOnUse">
<stop stop-color="#2DEEF9"/>
<stop offset="1" stop-color="#E084F1"/>
</linearGradient>
<clipPath id="clip0">
<rect width="375" height="812" fill="white"/>
</clipPath>
</defs>
</svg>
